<svg width="16" height="16" viewBox="0 0 16 16" fill="none" xmlns="http://www.w3.org/2000/svg">
<path d="M8 0C6.94943 -1.2528e-08 5.90914 0.206926 4.93853 0.608964C3.96793 1.011 3.08601 1.60028 2.34315 2.34315C1.60028 3.08601 1.011 3.96793 0.608964 4.93853C0.206926 5.90914 -3.33941e-08 6.94943 0 8C3.33941e-08 9.05058 0.206926 10.0909 0.608964 11.0615C1.011 12.0321 1.60028 12.914 2.34315 13.6569C3.08601 14.3997 3.96793 14.989 4.93853 15.391C5.90914 15.7931 6.94943 16 8 16L8 12C7.47471 12 6.95457 11.8965 6.46927 11.6955C5.98396 11.4945 5.54301 11.1999 5.17157 10.8284C4.80014 10.457 4.5055 10.016 4.30448 9.53073C4.10346 9.04543 4 8.52529 4 8C4 7.47471 4.10346 6.95457 4.30448 6.46927C4.5055 5.98396 4.80014 5.54301 5.17157 5.17157C5.54301 4.80014 5.98396 4.5055 6.46927 4.30448C6.95457 4.10346 7.47471 4 8 4V0Z" fill="black"/>
<path d="M8 0C9.05057 -1.2528e-08 10.0909 0.206926 11.0615 0.608964C12.0321 1.011 12.914 1.60028 13.6569 2.34315C14.3997 3.08601 14.989 3.96793 15.391 4.93853C15.7931 5.90914 16 6.94943 16 8C16 9.05058 15.7931 10.0909 15.391 11.0615C14.989 12.0321 14.3997 12.914 13.6569 13.6569C12.914 14.3997 12.0321 14.989 11.0615 15.391C10.0909 15.7931 9.05057 16 8 16L8 11.9988C8.52512 11.9988 9.04511 11.8953 9.53026 11.6944C10.0154 11.4934 10.4562 11.1989 10.8276 10.8276C11.1989 10.4562 11.4934 10.0154 11.6944 9.53026C11.8953 9.04511 11.9988 8.52512 11.9988 8C11.9988 7.47488 11.8953 6.95489 11.6944 6.46974C11.4934 5.98459 11.1989 5.54377 10.8276 5.17245C10.4562 4.80113 10.0154 4.50658 9.53026 4.30563C9.04511 4.10467 8.52513 4.00124 8 4.00124V0Z" fill="white"/>
</svg>
