<svg width="10" height="12" viewBox="0 0 10 12" fill="none" xmlns="http://www.w3.org/2000/svg">
<path d="M9.86705 3.36577L6.68523 0.135C6.64298 0.0921535 6.59284 0.0581778 6.53766 0.0350141C6.48248 0.0118504 6.42335 -4.75319e-05 6.36364 1.42707e-07H0.909091C0.667985 1.42707e-07 0.436754 0.0972526 0.266267 0.270363C0.0957789 0.443474 0 0.678262 0 0.923077V11.0769C0 11.3217 0.0957789 11.5565 0.266267 11.7296C0.436754 11.9027 0.667985 12 0.909091 12H9.09091C9.33202 12 9.56325 11.9027 9.73373 11.7296C9.90422 11.5565 10 11.3217 10 11.0769V3.69231C10 3.63168 9.98833 3.57164 9.96552 3.51561C9.9427 3.45958 9.90924 3.40866 9.86705 3.36577ZM6.81818 1.57558L8.4483 3.23077H6.81818V1.57558ZM9.09091 11.0769H0.909091V0.923077H5.90909V3.69231C5.90909 3.81472 5.95698 3.93211 6.04222 4.01866C6.12747 4.10522 6.24308 4.15385 6.36364 4.15385H9.09091V11.0769Z" fill="#3F3F3F"/>
</svg>
