<svg width="162" height="143" viewBox="0 0 162 143" fill="none" xmlns="http://www.w3.org/2000/svg">
<path d="M103.211 11.6C97.153 6.44448 89.2937 3.22226 80.6158 3.22226C65.3886 3.22226 52.5191 12.9856 48 26.4867L55.7283 29C57.453 23.8445 60.7872 19.3559 65.2558 16.1738C69.7245 12.9917 75.0998 11.2784 80.6158 11.2778C87.0015 11.2778 92.8304 13.5978 97.3822 17.3356L85.5279 29H115V3.84494e-05L103.211 11.6Z" fill="#FFD84C"/>
<path d="M130.886 126.303C138.838 125.585 146.61 122.202 152.578 115.951C163.051 104.981 164.732 88.8048 157.925 76L150.765 79.7896C153.364 84.6787 154.368 90.2553 153.631 95.7252C152.895 101.195 150.456 106.279 146.663 110.253C142.271 114.853 136.558 117.412 130.683 118.047L130.27 101.257L110 122.488L131.297 143L130.886 126.303Z" fill="#FFD84C"/>
<path d="M15.9726 94.6741C14.0964 102.479 14.8065 110.964 18.8182 118.65C25.8574 132.136 40.6635 138.914 55 136.529L53.7073 128.495C48.2332 129.407 42.6201 128.578 37.6677 126.125C32.7153 123.673 28.6762 119.723 26.1257 114.838C23.1737 109.183 22.5837 102.923 23.8702 97.1226L39.9315 102.102L26.3071 76L0 89.7219L15.9726 94.6741Z" fill="#FFD84C"/>
<path d="M15.9088 50.6223L17.625 52.3837V49.9244V31.4375C17.625 30.6169 18.2629 30 19 30C19.7371 30 20.375 30.6169 20.375 31.4375V49.9244V52.3861L22.0917 50.6218L27.5315 45.0313C28.0667 44.482 28.9259 44.482 29.4611 45.0313C30.0105 45.5951 30.0105 46.5223 29.4611 47.0861L19.9611 56.8361C19.4259 57.3854 18.5667 57.3854 18.0315 56.8361L8.53146 47.0861C7.98209 46.5223 7.98209 45.5951 8.53146 45.0313C9.06668 44.482 9.9259 44.482 10.4611 45.0313L15.9088 50.6223ZM14.9209 59.9602L14.9217 59.9609C17.1696 62.2681 20.8229 62.2681 23.0709 59.9609L26.1386 56.8125H33.25C35.2933 56.8125 37 58.5263 37 60.6875V63.125C37 65.2862 35.2933 67 33.25 67H4.75C2.70669 67 1 65.2862 1 63.125V60.6875C1 58.5263 2.70669 56.8125 4.75 56.8125H11.8607L14.9209 59.9602ZM34.0383 59.9157C33.5188 59.3826 32.8086 59.0781 32.0625 59.0781C31.3164 59.0781 30.6062 59.3826 30.0867 59.9157C29.5681 60.448 29.2812 61.1644 29.2812 61.9062C29.2812 62.6481 29.5681 63.3645 30.0867 63.8968C30.6062 64.4299 31.3164 64.7344 32.0625 64.7344C32.8086 64.7344 33.5188 64.4299 34.0383 63.8968C34.5569 63.3645 34.8438 62.6481 34.8438 61.9062C34.8438 61.1644 34.5569 60.448 34.0383 59.9157Z" stroke="#807A66" stroke-width="2"/>
<path d="M74.4028 116.399H79.2553M74.4028 124.891H88.9605M74.4028 129.743H88.9605M74.4028 134.596H79.2553M71.9765 140.662H91.3867C92.0302 140.662 92.6474 140.406 93.1024 139.951C93.5574 139.496 93.813 138.879 93.813 138.235V111.546C93.813 110.903 93.5574 110.286 93.1024 109.831C92.6474 109.376 92.0302 109.12 91.3867 109.12H71.9765C71.333 109.12 70.7159 109.376 70.2609 109.831C69.8059 110.286 69.5502 110.903 69.5502 111.546V138.235C69.5502 138.879 69.8059 139.496 70.2609 139.951C70.7159 140.406 71.333 140.662 71.9765 140.662Z" stroke="#807A66" stroke-width="2" stroke-linecap="round" stroke-linejoin="round"/>
<path d="M88.9605 117.005C89.2955 117.005 89.567 116.734 89.567 116.399C89.567 116.064 89.2955 115.792 88.9605 115.792C88.6255 115.792 88.3539 116.064 88.3539 116.399C88.3539 116.734 88.6255 117.005 88.9605 117.005Z" fill="#FFD233" stroke="#807A66"/>
<path d="M138.601 31.5435V30C138.601 29.4477 138.154 29 137.601 29H126C125.448 29 125 29.4477 125 30V67C125 67.5523 125.448 68 126 68H137.601C138.154 68 138.601 67.5523 138.601 67V65.4565M144.552 43.413H142.852C142.401 43.413 141.968 43.5917 141.649 43.9097C141.331 44.2277 141.152 44.659 141.152 45.1087V45.7446C141.152 46.1115 141.271 46.4684 141.492 46.762C141.712 47.0555 142.022 47.2697 142.376 47.3724L146.728 48.639C147.081 48.7418 147.391 48.956 147.612 49.2495C147.833 49.543 147.952 49.9 147.952 50.2669V51.8913C147.952 52.341 147.773 52.7723 147.454 53.0903C147.135 53.4083 146.703 53.587 146.252 53.587H144.552M144.552 43.413H146.252C146.703 43.413 147.135 43.5917 147.454 43.9097C147.773 44.2277 147.952 44.659 147.952 45.1087V45.9565M144.552 43.413V40.8696M144.552 53.587H142.852C142.401 53.587 141.968 53.4083 141.649 53.0903C141.331 52.7723 141.152 52.341 141.152 51.8913V51.0435M144.552 53.587V56.1304M131.801 33.2391V41.7106M131.801 41.7106C133.318 38.8757 135.742 36.6279 138.688 35.3246C141.633 34.0212 144.931 33.7371 148.057 34.5173C151.183 35.2974 153.958 37.0972 155.94 39.6305C157.923 42.1638 159 45.2854 159 48.4992C159 51.7129 157.923 54.8345 155.94 57.3678C153.958 59.9011 151.183 61.7009 148.057 62.481C144.931 63.2612 141.633 62.9771 138.688 61.6737C135.742 60.3704 133.318 58.1243 131.801 55.2894M131.801 41.7106V55.2894M131.801 63.7609V55.2894" stroke="#807A66" stroke-width="2"/>
</svg>
