<svg width="12" height="12" viewBox="0 0 12 12" fill="none" xmlns="http://www.w3.org/2000/svg">
<path d="M9 1.2C9 0.88174 8.87357 0.576515 8.64853 0.351472C8.42348 0.126428 8.11826 0 7.8 0H4.2C3.88174 0 3.57652 0.126428 3.35147 0.351472C3.12643 0.576515 3 0.88174 3 1.2V2.4H0.599999C0.440869 2.4 0.288257 2.46321 0.175735 2.57574C0.0632133 2.68826 0 2.84087 0 3C0 3.15913 0.0632133 3.31174 0.175735 3.42426C0.288257 3.53679 0.440869 3.6 0.599999 3.6H1.2414L1.7616 10.8852C1.78315 11.188 1.91862 11.4713 2.14073 11.6781C2.36284 11.885 2.65508 12 2.9586 12H9.042C9.34552 12 9.63776 11.885 9.85987 11.6781C10.082 11.4713 10.2175 11.188 10.239 10.8852L10.758 3.6H11.4C11.5591 3.6 11.7117 3.53679 11.8243 3.42426C11.9368 3.31174 12 3.15913 12 3C12 2.84087 11.9368 2.68826 11.8243 2.57574C11.7117 2.46321 11.5591 2.4 11.4 2.4H9V1.2ZM7.8 2.4H4.2V1.2H7.8V2.4ZM9.5556 3.6L9.0414 10.8H2.958L2.4438 3.6H9.5556ZM7.2 4.8C7.04087 4.8 6.88826 4.86321 6.77574 4.97574C6.66321 5.08826 6.6 5.24087 6.6 5.4V9C6.6 9.15913 6.66321 9.31174 6.77574 9.42426C6.88826 9.53679 7.04087 9.6 7.2 9.6C7.35913 9.6 7.51174 9.53679 7.62426 9.42426C7.73679 9.31174 7.8 9.15913 7.8 9V5.4C7.8 5.24087 7.73679 5.08826 7.62426 4.97574C7.51174 4.86321 7.35913 4.8 7.2 4.8ZM4.8 4.8C4.64087 4.8 4.48826 4.86321 4.37574 4.97574C4.26321 5.08826 4.2 5.24087 4.2 5.4V9C4.2 9.15913 4.26321 9.31174 4.37574 9.42426C4.48826 9.53679 4.64087 9.6 4.8 9.6C4.95913 9.6 5.11174 9.53679 5.22426 9.42426C5.33679 9.31174 5.4 9.15913 5.4 9V5.4C5.4 5.24087 5.33679 5.08826 5.22426 4.97574C5.11174 4.86321 4.95913 4.8 4.8 4.8Z" fill="#3F3F3F"/>
</svg>
